<svg width="971" height="699" viewBox="0 0 971 699" fill="none" xmlns="http://www.w3.org/2000/svg">
<path d="M895.461 182.722C905.64 207.774 903.925 236.318 892.038 266.52C880.151 296.726 858.1 328.563 827.663 360.154C766.788 423.336 672.433 485.467 559.021 531.547C445.608 577.627 334.657 598.912 246.966 596.093C203.12 594.684 165.114 587.249 135.527 573.894C105.944 560.54 84.8062 541.282 74.6275 516.23C64.4488 491.178 66.1644 462.635 78.0505 432.432C89.9379 402.226 111.988 370.39 142.426 338.798C203.301 275.617 297.656 213.485 411.068 167.406C524.481 121.326 635.432 100.04 723.122 102.859C766.969 104.268 804.975 111.703 834.562 125.058C864.145 138.412 885.283 157.67 895.461 182.722Z" stroke="black" stroke-opacity="0.2"/>
<path d="M895.461 182.722C903.552 202.634 902.181 225.334 892.705 249.369C883.228 273.407 865.655 298.752 841.394 323.91C792.874 374.224 717.674 423.718 627.29 460.441C536.906 497.165 448.496 514.146 378.633 511.931C343.701 510.824 313.43 504.919 289.872 494.302C266.318 483.687 249.504 468.377 241.413 448.465C233.323 428.552 234.694 405.853 244.17 381.818C253.646 357.78 271.22 332.435 295.481 307.277C344.001 256.963 419.201 207.469 509.585 170.745C599.969 134.022 688.379 117.041 758.242 119.255C793.174 120.362 823.445 126.268 847.002 136.884C870.556 147.499 887.371 162.81 895.461 182.722Z" stroke="black" stroke-opacity="0.2"/>
<path d="M895.461 182.722C901.383 197.297 900.37 213.927 893.399 231.557C886.426 249.19 873.502 267.793 855.658 286.269C819.969 323.22 764.665 359.59 698.198 386.595C631.732 413.601 566.733 426.111 515.387 424.523C489.712 423.729 467.476 419.411 450.18 411.638C432.888 403.867 420.563 392.656 414.642 378.081C408.72 363.506 409.733 346.876 416.704 329.247C423.677 311.614 436.601 293.01 454.445 274.534C490.134 237.583 545.438 201.213 611.904 174.208C678.371 147.202 743.37 134.693 794.716 136.28C820.391 137.074 842.627 141.392 859.923 149.165C877.215 156.936 889.54 168.147 895.461 182.722Z" stroke="black" stroke-opacity="0.2"/>
</svg>
