<svg width="20" height="20" viewBox="0 0 20 20" fill="none" xmlns="http://www.w3.org/2000/svg">
<path d="M11.028 0.00100056C11.7577 -0.00179966 12.4875 0.00553445 13.217 0.0230006L13.411 0.0300006C13.635 0.0380006 13.856 0.0480006 14.123 0.0600006C15.187 0.110001 15.913 0.278001 16.55 0.525001C17.21 0.779001 17.766 1.123 18.322 1.679C18.8304 2.17861 19.2238 2.78295 19.475 3.45C19.722 4.087 19.89 4.814 19.94 5.878C19.952 6.144 19.962 6.366 19.97 6.59L19.976 6.784C19.9938 7.51319 20.0014 8.2426 19.999 8.972L20 9.718V11.028C20.0025 11.7577 19.9948 12.4875 19.977 13.217L19.971 13.411C19.963 13.635 19.953 13.856 19.941 14.123C19.891 15.187 19.721 15.913 19.475 16.55C19.2246 17.2178 18.8311 17.8226 18.322 18.322C17.822 18.8303 17.2173 19.2238 16.55 19.475C15.913 19.722 15.187 19.89 14.123 19.94C13.856 19.952 13.635 19.962 13.411 19.97L13.217 19.976C12.4875 19.9938 11.7577 20.0014 11.028 19.999L10.282 20H8.973C8.24326 20.0025 7.51352 19.9948 6.784 19.977L6.59 19.971C6.35261 19.9624 6.11527 19.9524 5.878 19.941C4.814 19.891 4.088 19.721 3.45 19.475C2.78268 19.2243 2.17823 18.8308 1.679 18.322C1.17004 17.8223 0.776221 17.2176 0.524997 16.55C0.277997 15.913 0.109997 15.187 0.0599971 14.123C0.04886 13.8857 0.0388599 13.6484 0.0299971 13.411L0.0249973 13.217C0.00656085 12.4875 -0.00177338 11.7577 -2.83326e-06 11.028V8.972C-0.0027938 8.2426 0.00454031 7.5132 0.0219972 6.784L0.0289972 6.59C0.0369972 6.366 0.0469972 6.144 0.0589972 5.878C0.108997 4.813 0.276997 4.088 0.523997 3.45C0.77537 2.78262 1.16996 2.17845 1.68 1.68C2.17889 1.17075 2.78296 0.776573 3.45 0.525001C4.088 0.278001 4.813 0.110001 5.878 0.0600006L6.59 0.0300006L6.784 0.0250007C7.51318 0.00657354 8.24258 -0.00176069 8.972 6.32383e-07L11.028 0.00100056ZM10 5.001C9.3375 4.99163 8.67975 5.11402 8.06497 5.36107C7.45019 5.60811 6.89064 5.97488 6.41884 6.44005C5.94704 6.90523 5.5724 7.45954 5.31668 8.07076C5.06097 8.68199 4.92929 9.33794 4.92929 10.0005C4.92929 10.6631 5.06097 11.319 5.31668 11.9302C5.5724 12.5415 5.94704 13.0958 6.41884 13.5609C6.89064 14.0261 7.45019 14.3929 8.06497 14.6399C8.67975 14.887 9.3375 15.0094 10 15C11.3261 15 12.5978 14.4732 13.5355 13.5355C14.4732 12.5979 15 11.3261 15 10C15 8.67392 14.4732 7.40215 13.5355 6.46447C12.5978 5.52678 11.3261 5.001 10 5.001ZM10 7.001C10.3985 6.99366 10.7945 7.0658 11.1648 7.21321C11.5351 7.36062 11.8723 7.58034 12.1568 7.85954C12.4412 8.13875 12.6672 8.47183 12.8214 8.83934C12.9757 9.20685 13.0552 9.60142 13.0553 9.99999C13.0553 10.3986 12.976 10.7932 12.8218 11.1607C12.6677 11.5283 12.4418 11.8614 12.1575 12.1407C11.8731 12.42 11.536 12.6399 11.1657 12.7874C10.7955 12.9349 10.3995 13.0072 10.001 13C9.20535 13 8.44229 12.6839 7.87968 12.1213C7.31707 11.5587 7.001 10.7956 7.001 10C7.001 9.20435 7.31707 8.44129 7.87968 7.87868C8.44229 7.31607 9.20535 7 10.001 7L10 7.001ZM15.25 3.501C14.9274 3.51391 14.6223 3.65115 14.3986 3.88397C14.1749 4.11679 14.05 4.42713 14.05 4.75C14.05 5.07287 14.1749 5.38321 14.3986 5.61603C14.6223 5.84885 14.9274 5.98609 15.25 5.999C15.5815 5.999 15.8995 5.8673 16.1339 5.63288C16.3683 5.39846 16.5 5.08052 16.5 4.749C16.5 4.41748 16.3683 4.09954 16.1339 3.86512C15.8995 3.6307 15.5815 3.499 15.25 3.499V3.501Z" fill="#1B1B1B"/>
</svg>
