<svg width="71" height="36" viewBox="0 0 71 36" fill="none" xmlns="http://www.w3.org/2000/svg">
<path d="M4.86169 35.9876C4.86169 35.8968 4.86667 35.8035 4.86667 35.7127C4.86667 23.9211 4.86667 12.1321 4.86667 0.340465V0.0302922C4.94147 0.0252488 5.0013 0.0151618 5.06114 0.0151618C9.2247 0.0101184 13.3883 0.0151618 17.5518 3.14812e-05C19.4691 -0.0075337 21.1719 1.34916 21.5982 3.23036C21.6655 3.53045 21.7054 3.84314 21.7079 4.15079C21.7179 5.63357 21.7204 7.11634 21.7104 8.59912C21.6855 12.301 19.2073 15.6196 15.6919 16.6661C14.8842 16.9057 14.0589 17.0192 13.2137 17.0166C11.5084 17.0116 9.80561 17.0166 8.10029 17.0166H7.841V18.9508C7.9133 18.9533 7.98062 18.9609 8.04793 18.9609C9.81558 18.9609 11.5832 18.9735 13.3484 18.9584C15.7119 18.9382 17.8336 18.1892 19.681 16.7014C21.6107 15.148 22.8573 13.1458 23.4033 10.7073C23.5653 9.98859 23.6376 9.25981 23.6376 8.52347C23.6376 5.78487 23.6376 3.04376 23.6376 0.30516C23.6376 0.221943 23.6376 0.136205 23.6376 0.0555095C23.7922 0.00759666 26.2031 -0.0100554 26.587 0.0328139C26.592 0.0908137 26.5995 0.151335 26.5995 0.214378C26.5995 3.01854 26.6319 5.82018 26.592 8.62434C26.5347 12.5255 25.0288 15.7936 22.2115 18.449C21.4112 19.203 20.5162 19.8284 19.5538 20.3554C19.5065 20.3806 19.4591 20.4109 19.3893 20.4512C19.4466 20.4891 19.489 20.5168 19.5339 20.542C23.0193 22.4863 25.2108 25.4468 26.2504 29.305C26.4723 30.1321 26.5671 30.9794 26.5671 31.8394C26.5671 33.1456 26.5671 34.4519 26.5671 35.7581C26.5671 35.8363 26.5696 35.9145 26.5721 35.9901H23.5952C23.5952 35.9548 23.6027 35.9195 23.6027 35.8842C23.6027 34.6486 23.6027 33.4129 23.6027 32.1798C23.6027 31.5771 23.5429 30.9794 23.4182 30.3944C22.7226 27.0935 20.8902 24.6499 17.9408 23.0764C16.6344 22.3804 15.2282 21.9945 13.7498 21.9693C11.8226 21.9365 9.89536 21.9567 7.96815 21.9542C7.92826 21.9542 7.88837 21.9618 7.83103 21.9668V22.2492C7.83103 26.753 7.83103 31.2543 7.83103 35.7581C7.83103 35.8363 7.83602 35.9119 7.83602 35.9901H4.85919L4.86169 35.9876ZM7.8435 2.98323V14.0259C7.9158 14.0309 7.97563 14.036 8.03796 14.036C9.79065 14.036 11.5433 14.041 13.2985 14.0309C13.6176 14.0309 13.9417 14.0032 14.2559 13.9427C15.8864 13.6224 17.138 12.7373 17.9981 11.3024C18.5242 10.4249 18.761 9.46155 18.761 8.43773C18.761 7.308 18.761 6.17826 18.761 5.04853C18.761 4.77366 18.761 4.49879 18.761 4.2214C18.761 3.92888 18.6812 3.6641 18.4942 3.43715C18.2474 3.13706 17.9308 2.98071 17.5444 2.98071C14.3656 2.98071 11.1868 2.98071 8.01054 2.98071C7.96317 2.98071 7.9133 2.98071 7.84599 2.98071L7.8435 2.98323Z" fill="#1B1B1B"/>
<path d="M0 0.0175525C0.0473699 0.012509 0.097233 0.00494385 0.144603 0.00494385C1.03964 0.00494385 1.93219 0.00494385 2.82724 0.00494385C2.86962 0.00494385 2.90951 0.0099873 2.96685 0.0150308C2.97184 0.0705087 2.98181 0.123465 2.9843 0.178943C2.9868 0.241986 2.9843 0.305029 2.9843 0.370594C2.9843 12.1294 2.9843 23.8907 2.9843 35.6496C2.9843 35.763 2.97932 35.874 2.97682 35.9875H0C0 23.9967 0 12.0084 0 0.0175525Z" fill="#1B1B1B"/>
<path d="M60.1524 11.4133C60.2097 11.32 60.2496 11.2595 60.2895 11.1939C61.1197 9.79687 61.9524 8.40236 62.7777 7.00028C62.8624 6.85654 62.9522 6.79602 63.1242 6.79854C63.6553 6.81115 64.1863 6.80358 64.7173 6.80358H64.9342C64.9342 6.84393 64.9417 6.87167 64.9342 6.89436C64.7797 7.34575 64.7223 7.81731 64.7198 8.28888C64.7148 10.4777 64.7148 12.6641 64.7198 14.8529C64.7198 15.327 64.7797 15.7961 64.9342 16.2474C64.9417 16.2676 64.9392 16.2878 64.9417 16.3181H62.471C62.5259 16.0886 62.5957 15.8692 62.6306 15.6422C62.6705 15.3774 62.6979 15.1101 62.7004 14.8428C62.7104 13.3828 62.7103 11.9202 62.7153 10.4601C62.7153 10.4273 62.7103 10.392 62.7054 10.3138C62.6405 10.4046 62.5957 10.4626 62.5558 10.5231C61.8278 11.6529 61.0998 12.7801 60.3718 13.9098C60.3443 13.9502 60.3219 13.9955 60.292 14.0334C60.2097 14.1393 60.1175 14.1418 60.0352 14.0409C60.0053 14.0031 59.9803 13.9602 59.9529 13.9174C59.2224 12.7902 58.4919 11.6629 57.7614 10.5357C57.7215 10.4727 57.6767 10.4096 57.6069 10.3063C57.5994 10.4046 57.5944 10.455 57.5944 10.508C57.5969 11.8697 57.5969 13.234 57.6044 14.5957C57.6069 15.0269 57.6168 15.4581 57.7166 15.8793C57.7515 16.023 57.8013 16.1617 57.8487 16.3155H55.378C55.378 16.3029 55.3655 16.2802 55.3705 16.2651C55.5749 15.7204 55.6074 15.148 55.6123 14.5781C55.6223 13.1457 55.6198 11.7109 55.6173 10.2785C55.6173 9.61531 55.6024 8.95209 55.5899 8.28888C55.5799 7.81479 55.5301 7.34575 55.3755 6.89436C55.3705 6.87671 55.3755 6.85402 55.3755 6.8061H55.6024C56.1334 6.8061 56.6644 6.81115 57.1955 6.80358C57.36 6.80106 57.4573 6.84897 57.5445 6.99775C58.3648 8.39983 59.1925 9.79939 60.0202 11.1964C60.0576 11.2595 60.1 11.3225 60.1599 11.4133H60.1524Z" fill="#1B1B1B"/>
<path d="M38.3696 13.0298H36.4548C36.4474 13.0852 36.4349 13.1382 36.4374 13.1911C36.4449 13.8695 36.4499 14.5478 36.4673 15.2237C36.4773 15.5691 36.5272 15.9121 36.6693 16.2349C36.6792 16.2601 36.6792 16.2878 36.6867 16.3231H34.2334C34.226 16.308 34.2135 16.2929 34.2185 16.2828C34.3955 15.7759 34.4479 15.2489 34.4504 14.7193C34.4603 12.6162 34.4603 10.5106 34.4504 8.40743C34.4504 7.893 34.403 7.37856 34.2235 6.88683C34.216 6.86918 34.2235 6.84648 34.2235 6.80361C34.2958 6.80361 34.3631 6.80361 34.4304 6.80361C35.7368 6.80361 37.0432 6.80109 38.3496 6.80361C38.9605 6.80361 39.5613 6.88178 40.1298 7.12891C41.132 7.56265 41.6755 8.33934 41.8002 9.42621C41.8625 9.97594 41.8126 10.5106 41.6257 11.03C41.3913 11.6781 40.9724 12.1724 40.3791 12.5153C40.3492 12.533 40.3167 12.5481 40.2868 12.5658C40.2619 12.5784 40.2395 12.5935 40.2046 12.6162C40.2195 12.6591 40.2295 12.707 40.2469 12.7473C40.6359 13.6148 41.0273 14.4823 41.4187 15.3472C41.491 15.5061 41.5683 15.6675 41.6606 15.8163C41.7678 15.9877 41.8949 16.1441 42.0096 16.3004C41.8999 16.3332 39.8256 16.3483 39.5164 16.308C39.6137 16.0659 39.5489 15.8339 39.4616 15.6095C39.2946 15.1833 39.1175 14.7622 38.9405 14.3385C38.7585 13.9048 38.569 13.4711 38.3746 13.0222L38.3696 13.0298ZM36.4449 11.2847C36.5047 11.2923 36.5471 11.2999 36.587 11.2999C37.1305 11.2999 37.6765 11.3024 38.22 11.2948C38.3945 11.2948 38.569 11.2746 38.7386 11.2419C39.4217 11.1107 39.7957 10.6972 39.8381 10.0012C39.8779 9.37073 39.6087 8.90169 39.0004 8.69491C38.7386 8.60665 38.4718 8.56882 38.1976 8.56882C37.6665 8.56882 37.1355 8.56882 36.6044 8.56882C36.5521 8.56882 36.4997 8.58143 36.4399 8.58899V11.2872L36.4449 11.2847Z" fill="#1B1B1B"/>
<path d="M44.4753 19.6392C44.5351 19.6367 44.575 19.6316 44.6174 19.6316C46.0435 19.6316 47.4671 19.6266 48.8931 19.6367C49.499 19.6417 50.0849 19.7728 50.6259 20.0603C51.4935 20.5193 51.9472 21.2632 52.0594 22.2341C52.1218 22.7687 52.0794 23.2907 51.9049 23.8C51.673 24.4759 51.2467 24.9878 50.6334 25.3408C50.5785 25.3711 50.5262 25.4039 50.4588 25.4417C50.4813 25.4997 50.4987 25.5501 50.5212 25.598C50.8877 26.4126 51.2542 27.2296 51.6231 28.0441C51.6979 28.2105 51.7777 28.377 51.8625 28.5384C51.9772 28.7578 52.1043 28.9671 52.3112 29.1184C52.1642 29.1638 50.0699 29.1764 49.7757 29.136C49.8804 28.8485 49.7882 28.5787 49.681 28.319C49.3519 27.5272 49.0128 26.7379 48.6787 25.946C48.6488 25.8729 48.6114 25.83 48.5266 25.83C47.9408 25.8351 47.3524 25.8351 46.7665 25.8376C46.754 25.8376 46.7415 25.8477 46.7141 25.8628C46.7091 25.9006 46.7017 25.9486 46.7017 25.9939C46.7091 26.6647 46.7166 27.3355 46.7291 28.0063C46.7366 28.3669 46.7914 28.7225 46.9335 29.0578C46.941 29.0755 46.9385 29.0982 46.941 29.1184C46.7939 29.1638 44.7495 29.1764 44.4852 29.1335C44.4827 29.1209 44.4728 29.1058 44.4778 29.0931C44.6897 28.4627 44.7171 27.8045 44.7196 27.1489C44.7246 25.2979 44.7221 23.4495 44.7196 21.5986C44.7196 21.1043 44.6922 20.6101 44.5974 20.1234C44.565 19.9645 44.5177 19.8107 44.4728 19.6342L44.4753 19.6392ZM46.7141 24.1102C46.7515 24.1153 46.7789 24.1253 46.8039 24.1253C47.3748 24.1253 47.9482 24.1304 48.5192 24.1203C48.8059 24.1153 49.0876 24.0673 49.3544 23.9513C49.661 23.8177 49.8929 23.6059 50.0151 23.2831C50.0973 23.0687 50.1173 22.8443 50.1023 22.6174C50.0674 22.0449 49.7832 21.6616 49.2397 21.5028C48.9829 21.4271 48.7061 21.3868 48.4394 21.3767C47.9108 21.3565 47.3798 21.3691 46.8488 21.3716C46.8039 21.3716 46.7565 21.3842 46.7116 21.3918V24.1077L46.7141 24.1102Z" fill="#1B1B1B"/>
<path d="M44.5027 6.81873H46.971C46.9735 6.8389 46.9859 6.86159 46.9809 6.87673C46.7715 7.3382 46.7516 7.83498 46.7491 8.32924C46.7366 9.53715 46.7416 10.7425 46.7441 11.9504C46.7441 12.3514 46.759 12.7549 46.7765 13.1558C46.7815 13.2668 46.8039 13.3803 46.8338 13.4887C47.0109 14.1443 47.4347 14.5705 48.24 14.6386C48.5317 14.6638 48.8259 14.6588 49.1126 14.5831C49.686 14.4268 50.035 14.046 50.1697 13.471C50.222 13.2466 50.252 13.0121 50.2545 12.7801C50.2619 11.3477 50.2619 9.91541 50.2545 8.48054C50.2545 8.13002 50.2171 7.77698 50.1722 7.42646C50.1472 7.22725 50.0724 7.03559 50.0151 6.82377H52.4659C52.4709 6.84899 52.4808 6.86412 52.4758 6.8742C52.2614 7.5122 52.2415 8.17794 52.2365 8.83863C52.224 10.271 52.229 11.7033 52.2315 13.1382C52.2315 13.5517 52.1767 13.9552 52.0371 14.3436C51.7055 15.2816 51.0572 15.9121 50.1398 16.2399C49.0577 16.6282 47.9583 16.6358 46.8787 16.2424C45.667 15.8011 44.9715 14.9135 44.8044 13.6173C44.782 13.4357 44.772 13.2517 44.772 13.0701C44.7695 11.7159 44.772 10.3592 44.767 9.00506C44.767 8.46037 44.7421 7.9182 44.6424 7.38359C44.61 7.20455 44.5576 7.03055 44.5052 6.82125L44.5027 6.81873Z" fill="#1B1B1B"/>
<path d="M42.5232 29.1511H39.9129C39.9702 28.7149 39.7583 28.3694 39.5514 28.029C38.9505 27.0455 38.3372 26.0671 37.7339 25.0836C37.6691 24.9777 37.5993 24.9247 37.4696 24.9298C37.1355 24.9399 36.8014 24.9323 36.4574 24.9323C36.4499 24.9928 36.4374 25.0407 36.4374 25.0861C36.4424 26.0116 36.4499 26.9345 36.4599 27.86C36.4649 28.2912 36.5197 28.7174 36.6942 29.1184C36.5372 29.1688 34.6997 29.189 34.2111 29.1461C34.251 28.9973 34.3083 28.8536 34.3257 28.7048C34.3781 28.2862 34.4429 27.8651 34.4504 27.4439C34.4679 26.2083 34.4629 24.9726 34.4629 23.7395C34.4629 22.9628 34.4728 22.1861 34.4529 21.4094C34.4404 20.9732 34.3831 20.5394 34.3307 20.1057C34.3133 19.9544 34.2559 19.8081 34.2136 19.6467H36.6967C36.6718 19.7199 36.6419 19.7829 36.6269 19.851C36.5721 20.1057 36.4873 20.3604 36.4798 20.6151C36.4524 21.5179 36.4524 22.4206 36.4399 23.3234C36.4399 23.3436 36.4499 23.3638 36.4599 23.394H37.5943C37.6292 23.3436 37.6666 23.2856 37.704 23.2251C38.2225 22.4131 38.7386 21.5986 39.2547 20.7866C39.312 20.6983 39.3644 20.6075 39.4168 20.5142C39.6162 20.1536 39.6486 20.0401 39.6636 19.6442H42.249C42.0919 19.8384 41.9249 20.0225 41.7828 20.2242C41.6008 20.484 41.4387 20.7563 41.2692 21.0236C40.6484 22.0046 40.0301 22.9855 39.4093 23.9665C39.3769 24.0194 39.3445 24.0749 39.3046 24.1405C39.342 24.2035 39.3794 24.2716 39.4193 24.3346C40.2719 25.709 41.1221 27.0858 41.9747 28.4602C42.1293 28.7098 42.3013 28.9469 42.5257 29.1511H42.5232Z" fill="#1B1B1B"/>
<path d="M60.1125 29.1436C60.2795 28.846 60.2272 28.5535 60.1549 28.2635C60.0751 27.9432 59.9878 27.623 59.9006 27.3002H56.7667C56.6969 27.5448 56.6246 27.7919 56.5572 28.0416C56.5248 28.1626 56.4949 28.2887 56.47 28.4123C56.4226 28.6569 56.4076 28.899 56.5323 29.1461H53.9818C54.0142 29.1007 54.0441 29.0679 54.0641 29.0301C54.1538 28.8561 54.261 28.6872 54.3209 28.5031C54.5677 27.7692 54.7996 27.0304 55.0339 26.2915C55.7195 24.138 56.4027 21.9819 57.0883 19.8283C57.1082 19.7678 57.1282 19.7098 57.1506 19.6417H59.5091C59.5391 19.7325 59.5715 19.8233 59.6014 19.9166C60.4939 22.7283 61.3865 25.5426 62.2815 28.3543C62.3688 28.6292 62.4486 28.9091 62.6729 29.1184C62.5209 29.1713 60.6984 29.189 60.1125 29.1461V29.1436ZM59.4568 25.7266C59.3296 25.2727 59.21 24.834 59.0853 24.3977C58.9631 23.964 58.846 23.5302 58.7188 23.099C58.5917 22.6703 58.4919 22.2315 58.3249 21.8104C57.9384 23.1141 57.567 24.4128 57.203 25.7266H59.4568Z" fill="#1B1B1B"/>
<path d="M67.0759 25.2248C67.0709 25.303 67.0659 25.3509 67.0659 25.3988C67.0659 26.1326 67.0609 26.8664 67.0709 27.6028C67.0759 27.9836 67.0908 28.3669 67.1856 28.7376C67.2205 28.8712 67.2703 28.9998 67.3177 29.1486H64.8395C64.8445 29.1007 64.8445 29.0528 64.857 29.0099C64.9766 28.6594 65.0215 28.2937 65.0414 27.9281C65.0664 27.512 65.0788 27.0959 65.0813 26.6798C65.0863 25.1416 65.0888 23.6008 65.0813 22.0626C65.0788 21.5481 65.0489 21.0337 65.0065 20.5193C64.9866 20.2696 64.9093 20.0225 64.8594 19.7754C64.852 19.735 64.8395 19.6947 64.827 19.6442H71.0001V21.6515C70.7757 21.5986 70.5638 21.5254 70.3444 21.4977C70.0203 21.4573 69.6912 21.4296 69.3646 21.4246C68.644 21.4145 67.926 21.4195 67.2055 21.4195C67.1706 21.4195 67.1357 21.4246 67.1033 21.4271C67.0559 21.5733 67.0409 23.3184 67.0858 23.6639C67.3351 23.684 67.5919 23.6689 67.8487 23.6714C68.108 23.6714 68.3648 23.6714 68.6241 23.6714C68.8759 23.6714 69.1277 23.6739 69.377 23.6588C69.6338 23.6412 69.8881 23.6033 70.1524 23.5731V25.3534C69.6064 25.2097 69.0629 25.2248 68.5194 25.2248C68.0457 25.2248 67.572 25.2248 67.0759 25.2248Z" fill="#1B1B1B"/>
</svg>
